<svg class="svg" width="18" height="24" viewBox="0 0 18 24" xmlns="http://www.w3.org/2000/svg"><path d="M9 7.658l-.847-.714c-1.63-1.373-4.049-1.238-5.517.307-1.477 1.555-1.477 3.995 0 5.55L9 19.5l6.364-6.699c1.477-1.555 1.477-3.995 0-5.55-1.468-1.545-3.886-1.68-5.517-.307L9 7.658zm0 8.938l4.914-5.172c.744-.783.744-2.012 0-2.795-.74-.779-1.957-.846-2.778-.155L9 10.273 6.864 8.474c-.82-.691-2.038-.624-2.778.155-.744.783-.744 2.012 0 2.795L9 16.596z" fill-rule="evenodd" fill-opacity="1" fill="currentColor" stroke="none"></path></svg>